<svg width="18" height="20" viewBox="0 0 18 20" fill="none" xmlns="http://www.w3.org/2000/svg">
<path d="M6.09388 19.006C5.46508 18.972 4.87336 18.6978 4.44088 18.24C3.92347 17.7423 3.46176 17.1897 3.06388 16.592C2.44236 15.702 1.95107 14.7279 1.60488 13.699C1.21308 12.5922 1.00697 11.4281 0.99488 10.254C0.964442 9.10198 1.24974 7.96356 1.81988 6.96202C2.23745 6.24012 2.83307 5.63728 3.54988 5.21102C4.25877 4.78659 5.0677 4.55813 5.89388 4.54902C6.5167 4.58587 7.12873 4.72823 7.70388 4.97002C8.16288 5.17202 8.64488 5.31402 9.13988 5.39202C9.6859 5.27764 10.2194 5.11018 10.7329 4.89202C11.3405 4.65476 11.9839 4.52188 12.6359 4.49902C12.7229 4.49902 12.8089 4.49902 12.8919 4.50902C14.3219 4.55002 15.6519 5.25202 16.4919 6.40902C15.8363 6.75965 15.2908 7.28521 14.916 7.92728C14.5412 8.56935 14.3518 9.30277 14.3689 10.046C14.3623 10.6144 14.4763 11.1776 14.7033 11.6987C14.9304 12.2198 15.2652 12.6868 15.6859 13.069C16.0688 13.4338 16.5147 13.7262 17.0019 13.932C16.9019 14.232 16.7869 14.522 16.6649 14.814C16.3879 15.4593 16.0461 16.0748 15.6449 16.651C15.2655 17.2283 14.8238 17.7622 14.3279 18.243C13.8755 18.6919 13.2725 18.9567 12.6359 18.986C12.0962 18.9621 11.5661 18.8355 11.0739 18.613C10.5431 18.3818 9.97266 18.2551 9.39388 18.24C8.79877 18.2518 8.21146 18.3777 7.66388 18.611C7.19093 18.8244 6.68563 18.9572 6.16888 19.004L6.09388 19.006ZM9.24388 4.49902C9.16888 4.49902 9.09388 4.49902 9.01888 4.49002C9.0031 4.37099 8.99476 4.25109 8.99388 4.13102C9.02659 3.13216 9.41695 2.17826 10.0939 1.44302C10.4725 1.02048 10.9314 0.677486 11.4439 0.434023C11.9214 0.188178 12.4433 0.04028 12.9789 -0.000976562C12.9939 0.130023 12.9939 0.258024 12.9939 0.380024C12.9798 1.36319 12.6104 2.30805 11.9539 3.04002C11.636 3.46624 11.2287 3.81772 10.7605 4.06977C10.2924 4.32182 9.7747 4.46833 9.24388 4.49902Z" fill="white"/>
</svg>
