<svg width="24" height="24" viewBox="0 0 24 24" fill="none" xmlns="http://www.w3.org/2000/svg">
<path d="M3.609 1.81445L13.792 12.0005L3.61 22.1865C3.42894 22.1103 3.27443 21.9824 3.16589 21.8187C3.05736 21.655 2.99964 21.4629 3 21.2665V2.73445C3.00008 2.53827 3.05786 2.34645 3.16614 2.18287C3.27443 2.01928 3.42844 1.89116 3.609 1.81445ZM14.499 12.7075L16.801 15.0095L5.864 21.3425L14.499 12.7075ZM17.698 9.50945L20.505 11.1355C20.6565 11.2234 20.7823 11.3495 20.8698 11.5013C20.9572 11.6531 21.0032 11.8253 21.0032 12.0005C21.0032 12.1756 20.9572 12.3478 20.8698 12.4996C20.7823 12.6514 20.6565 12.7775 20.505 12.8655L17.697 14.4915L15.206 12.0005L17.698 9.50945ZM5.864 2.65845L16.802 8.99045L14.499 11.2935L5.864 2.65845Z" fill="white"/>
</svg>
